<?xml version="1.0" encoding="UTF-8"?>
<!DOCTYPE svg PUBLIC "-//W3C//DTD SVG 1.1//EN" "http://www.w3.org/Graphics/SVG/1.1/DTD/svg11.dtd">
<!-- Creator: CorelDRAW X6 -->
<svg xmlns="http://www.w3.org/2000/svg" xml:space="preserve" width="5.20833in" height="1.58333in" version="1.1" style="shape-rendering:geometricPrecision; text-rendering:geometricPrecision; image-rendering:optimizeQuality; fill-rule:evenodd; clip-rule:evenodd"
viewBox="0 0 5208 1583"
 xmlns:xlink="http://www.w3.org/1999/xlink">
 <defs>
  <style type="text/css">
   <![CDATA[
    .fil0 {fill:#333653;fill-rule:nonzero}
    .fil1 {fill:#5DC8DA;fill-rule:nonzero}
   ]]>
  </style>
 </defs>
 <g id="Layer_x0020_1">
  <metadata id="CorelCorpID_0Corel-Layer"/>
  <path class="fil0" d="M444 1110l-13 0 -28 108c-2,7 -3,13 -5,20l0 0c-1,-8 -4,-16 -6,-23l-31 -105 -17 0 -29 103c-2,8 -4,17 -6,25l0 0c-2,-9 -3,-17 -6,-26l-27 -102 -14 0 38 142 17 0 30 -107c2,-8 4,-14 5,-21l0 0c1,6 3,14 5,21l31 107 17 0 38 -142zm94 0l-13 0 0 142 13 0 0 -142zm164 101c0,-44 -67,-32 -67,-66 0,-16 12,-26 33,-26 8,0 18,1 26,4l1 -13c-8,-1 -16,-3 -25,-3 -30,0 -48,16 -48,38 0,44 67,31 67,66 0,21 -16,28 -35,28 -10,0 -21,-2 -29,-5l-1 13c8,2 18,4 29,4 31,0 51,-17 51,-42zm155 0c0,-44 -67,-32 -67,-66 0,-16 12,-26 33,-26 8,0 18,1 26,4l1 -13c-8,-1 -16,-3 -25,-3 -30,0 -48,16 -48,38 0,44 67,31 67,66 0,21 -16,28 -35,28 -10,0 -21,-2 -29,-5l-1 13c8,2 18,4 29,4 31,0 51,-17 51,-42zm152 40l0 -11 -56 0 0 -57 54 0 0 -11 -54 0 0 -52 56 0 0 -11 -70 0 0 142 70 0zm194 0l0 -142 -13 0 0 38c0,27 1,69 1,89 -5,-10 -11,-20 -17,-30l-62 -97 -18 0 0 142 13 0 0 -42c0,-26 -1,-69 -1,-86 5,9 10,18 17,29l63 99 18 0zm98 -19c-6,0 -10,5 -10,10 0,6 4,10 10,10 6,0 10,-5 10,-10 0,-5 -4,-10 -10,-10zm284 -119c-13,-4 -25,-6 -38,-6 -46,0 -74,32 -74,75 0,44 28,70 70,70 14,0 31,-3 46,-8l0 -65 -13 0 0 56c-9,3 -19,5 -30,5 -34,0 -57,-22 -57,-61 0,-42 28,-62 59,-62 12,0 26,3 38,8l2 -13zm179 137l-44 -53c-4,-5 -9,-10 -13,-15 27,0 48,-14 48,-40 0,-26 -20,-35 -46,-35 -15,0 -23,0 -32,1l0 142 13 0 0 -67 1 0 54 67 18 0zm-23 -105c0,16 -13,28 -36,28 -7,0 -11,0 -14,0l0 -53c5,0 9,-1 14,-1 23,0 35,7 35,26zm179 -61c0,-5 -4,-9 -9,-9 -5,0 -9,4 -9,9 0,5 4,9 9,9 5,0 9,-4 9,-9zm-39 0c0,-5 -4,-9 -9,-9 -5,0 -9,4 -9,9 0,5 4,9 9,9 5,0 9,-4 9,-9zm66 112l0 -88 -13 0 0 89c0,32 -14,43 -41,43 -32,0 -39,-18 -39,-39l0 -94 -13 0 0 95c0,24 8,48 52,48 37,0 55,-19 55,-55zm202 53l0 -142 -13 0 0 38c0,27 1,69 1,89 -5,-10 -11,-20 -17,-30l-62 -97 -18 0 0 142 13 0 0 -42c0,-26 -1,-69 -1,-86 5,9 10,18 17,29l63 99 18 0zm206 -72c0,-48 -27,-70 -73,-70 -14,0 -29,1 -40,1l0 142c9,0 19,1 33,1 46,0 80,-24 80,-73zm-14 1c0,42 -26,61 -64,61 -6,0 -15,-1 -22,-1l0 -119c6,0 16,-1 25,-1 40,0 61,20 61,60zm168 71l0 -11 -56 0 0 -57 54 0 0 -11 -54 0 0 -52 56 0 0 -11 -70 0 0 142 70 0zm194 0l0 -142 -13 0 0 38c0,27 1,69 1,89 -5,-10 -11,-20 -17,-30l-62 -97 -18 0 0 142 13 0 0 -42c0,-26 -1,-69 -1,-86 5,9 10,18 17,29l63 99 18 0zm98 -19c-6,0 -10,5 -10,10 0,6 4,10 10,10 6,0 10,-5 10,-10 0,-5 -4,-10 -10,-10zm288 -35l0 -88 -13 0 0 89c0,32 -14,43 -41,43 -32,0 -39,-18 -39,-39l0 -94 -13 0 0 95c0,24 8,48 52,48 37,0 55,-19 55,-55zm202 53l0 -142 -13 0 0 38c0,27 1,69 1,89 -5,-10 -11,-20 -17,-30l-62 -97 -18 0 0 142 13 0 0 -42c0,-26 -1,-69 -1,-86 5,9 10,18 17,29l63 99 18 0zm179 -130l0 -11 -101 0 0 11 44 0 0 130 13 0 0 -130 44 0zm148 130l0 -11 -56 0 0 -57 54 0 0 -11 -54 0 0 -52 56 0 0 -11 -70 0 0 142 70 0zm171 0l-44 -53c-4,-5 -9,-10 -13,-15 27,0 48,-14 48,-40 0,-26 -20,-35 -46,-35 -15,0 -23,0 -32,1l0 142 13 0 0 -67 1 0 54 67 18 0zm-23 -105c0,16 -13,28 -36,28 -7,0 -11,0 -14,0l0 -53c5,0 9,-1 14,-1 23,0 35,7 35,26zm212 105l0 -142 -13 0 0 38c0,27 1,69 1,89 -5,-10 -11,-20 -17,-30l-62 -97 -18 0 0 142 13 0 0 -42c0,-26 -1,-69 -1,-86 5,9 10,18 17,29l63 99 18 0zm163 0l0 -11 -56 0 0 -57 54 0 0 -11 -54 0 0 -52 56 0 0 -11 -70 0 0 142 70 0zm193 0l0 -142 -13 0 0 63 -81 0 0 -63 -13 0 0 142 13 0 0 -68 81 0 0 68 13 0zm247 0l-21 -142 -18 0 -35 103c-3,10 -5,16 -8,25l0 0c-1,-7 -4,-17 -8,-27l-34 -101 -18 0 -20 142 14 0 11 -90c2,-15 3,-26 4,-37l0 0c1,8 5,19 9,29l34 99 16 0 36 -105c3,-9 5,-17 7,-22l0 0c1,7 2,18 4,36l13 92 14 0zm155 0l0 -11 -56 0 0 -57 54 0 0 -11 -54 0 0 -52 56 0 0 -11 -70 0 0 142 70 0zm194 0l0 -142 -13 0 0 38c0,27 1,69 1,89 -5,-10 -11,-20 -17,-30l-62 -97 -18 0 0 142 13 0 0 -42c0,-26 -1,-69 -1,-86 5,9 10,18 17,29l63 99 18 0zm98 -19c-6,0 -10,5 -10,10 0,6 4,10 10,10 6,0 10,-5 10,-10 0,-5 -4,-10 -10,-10z"/>
  <path class="fil0" d="M587 786l0 -22c-19,-1 -41,-4 -56,-6l0 -437c-30,-1 -70,1 -97,5l0 22c19,1 41,4 56,6l0 117c-23,-3 -43,-4 -63,-4 -98,0 -163,62 -163,178 0,93 39,151 118,151 51,0 94,-31 111,-79l1 1c-4,20 -6,53 -6,73 31,1 71,-1 97,-5zm-96 -161c0,57 -32,138 -101,138 -56,0 -82,-46 -82,-122 0,-100 46,-142 116,-142 21,0 44,3 67,8l0 118zm346 -160c-77,-8 -110,42 -122,89l-1 -1c6,-28 8,-61 8,-84 -30,-1 -71,1 -97,5l0 22c19,1 41,4 56,6l0 256c-19,1 -39,4 -56,9l0 22 152 0 0 -22c-17,-5 -37,-8 -56,-9l0 -96c0,-111 35,-170 114,-158l2 -39zm281 129c0,-69 -36,-129 -123,-129 -87,0 -138,71 -138,166 0,113 51,164 146,164 40,0 75,-7 104,-19l-4 -36c-23,12 -59,21 -93,21 -75,0 -114,-42 -110,-146l217 0c1,-9 1,-17 1,-21zm-43 -10l-172 0c9,-53 42,-87 90,-87 52,0 84,36 82,87zm301 112c0,-110 -165,-60 -165,-144 0,-33 25,-55 76,-55 14,0 28,2 40,5 2,18 5,38 9,57l23 0 0 -84c-21,-5 -46,-8 -67,-8 -78,0 -122,39 -122,91 0,115 165,64 165,145 0,37 -35,59 -85,59 -15,0 -30,-1 -42,-4 -2,-19 -5,-39 -10,-57l-23 0 0 88c19,5 45,7 69,7 82,0 131,-45 131,-100zm373 90l0 -22c-19,-1 -41,-4 -56,-6l0 -437c-30,-1 -70,1 -97,5l0 22c19,1 41,4 56,6l0 117c-23,-3 -43,-4 -63,-4 -98,0 -163,62 -163,178 0,93 39,151 118,151 51,0 94,-31 111,-79l1 1c-4,20 -6,53 -6,73 31,1 71,-1 97,-5zm-97 -161c0,57 -32,138 -101,138 -56,0 -82,-46 -82,-122 0,-100 46,-142 116,-142 21,0 44,3 67,8l0 118zm380 -31c0,-69 -36,-129 -123,-129 -87,0 -138,71 -138,166 0,113 51,164 146,164 40,0 75,-7 104,-19l-4 -36c-23,12 -59,21 -93,21 -75,0 -114,-42 -110,-146l217 0c1,-9 1,-17 1,-21zm-43 -10l-172 0c9,-53 42,-87 90,-87 52,0 84,36 82,87zm347 207l96 0 0 -22c-17,-5 -36,-8 -55,-9l0 -192c0,-57 -23,-103 -97,-103 -57,0 -98,32 -116,80l-1 -1c4,-20 6,-52 6,-74 -30,-1 -71,1 -97,5l0 22c19,1 41,4 56,6l0 256c-19,1 -39,4 -56,9l0 22 151 0 0 -22c-16,-5 -36,-8 -55,-9l0 -122c0,-80 42,-140 103,-140 50,0 65,32 65,85l0 208zm721 -173c0,-89 -45,-155 -144,-155 -104,0 -160,73 -160,172 0,113 61,163 169,163 39,0 85,-7 124,-23l-10 -88c-32,14 -64,20 -95,20 -46,0 -67,-18 -69,-41l181 0c3,-17 4,-34 4,-50zm-114 -26l-72 0c1,-26 17,-44 39,-44 21,0 34,14 33,44zm602 199l-91 -162 85 -158 -128 0 -37 84 -37 -84 -138 0 93 157 -100 163 138 0 35 -86 35 86 145 0zm669 -103c0,-98 -106,-97 -106,-123 0,-9 7,-15 24,-15 18,0 37,3 53,6l3 -90c-17,-2 -37,-4 -53,-4 -100,0 -148,52 -148,111 0,104 103,87 103,122 0,8 -9,14 -26,14 -23,0 -47,-5 -66,-10l-3 93c21,2 44,5 66,5 91,0 152,-41 152,-111zm355 101l0 -92c-10,3 -23,5 -33,5 -19,0 -27,-9 -27,-33l0 -107 60 0 0 -90 -60 0 0 -110 -117 10 0 100 -40 0 0 90 41 0 0 131c0,83 25,106 103,106 24,0 51,-4 74,-10zm387 -101c0,-98 -106,-97 -106,-123 0,-9 7,-15 24,-15 18,0 37,3 53,6l3 -90c-17,-2 -37,-4 -53,-4 -100,0 -148,52 -148,111 0,104 103,87 103,122 0,8 -9,14 -26,14 -23,0 -47,-5 -66,-10l-3 93c21,2 44,5 66,5 91,0 152,-41 152,-111z"/>
  <polygon class="fil0" points="2599,947 2616,947 2616,272 2599,272 "/>
  <polygon class="fil1" points="3814,402 3814,294 3696,305 3696,412 "/>
  <polygon class="fil0" points="3814,790 3814,461 3696,471 3696,790 "/>
 </g>
</svg>
