<?xml version="1.0" encoding="UTF-8"?>
<!DOCTYPE svg PUBLIC "-//W3C//DTD SVG 1.1//EN" "http://www.w3.org/Graphics/SVG/1.1/DTD/svg11.dtd">
<!-- Creator: CorelDRAW X6 -->
<svg xmlns="http://www.w3.org/2000/svg" xml:space="preserve" width="5.18055in" height="3.29166in" version="1.1" style="shape-rendering:geometricPrecision; text-rendering:geometricPrecision; image-rendering:optimizeQuality; fill-rule:evenodd; clip-rule:evenodd"
viewBox="0 0 5181 3292"
 xmlns:xlink="http://www.w3.org/1999/xlink">
 <defs>
  <style type="text/css">
   <![CDATA[
    .str0 {stroke:#373435;stroke-width:13.8898}
    .fil1 {fill:none;fill-rule:nonzero}
    .fil3 {fill:#BDBFC1;fill-rule:nonzero}
    .fil0 {fill:#333436;fill-rule:nonzero}
    .fil2 {fill:#F12635;fill-rule:nonzero}
   ]]>
  </style>
 </defs>
 <g id="Layer_x0020_1">
  <metadata id="CorelCorpID_0Corel-Layer"/>
  <polygon class="fil0" points="959,2506 1132,2506 1132,2545 1004,2545 1004,2635 1120,2635 1120,2674 1004,2674 1004,2775 1132,2775 1132,2814 959,2814 "/>
  <polygon class="fil0" points="1249,2696 1175,2589 1227,2589 1276,2669 1326,2589 1372,2589 1300,2696 1379,2814 1328,2814 1273,2726 1217,2814 1168,2814 "/>
  <path class="fil0" d="M1424 2589l41 0 0 225 -41 0 0 -225zm44 -50l-47 0 0 -47 47 0 0 47z"/>
  <path class="fil0" d="M1525 2770c16,11 40,16 52,16 19,0 42,-8 42,-32 0,-41 -97,-37 -97,-101 0,-47 35,-69 79,-69 19,0 35,4 52,9l-4 36c-9,-6 -34,-11 -44,-11 -21,0 -40,9 -40,27 0,46 97,33 97,105 0,48 -38,70 -79,70 -21,0 -43,-2 -62,-12l2 -37z"/>
  <path class="fil0" d="M1833 2623l-60 0 0 123c0,26 16,40 35,40 13,0 22,-4 28,-8l0 35c-9,3 -22,6 -35,6 -43,0 -69,-20 -69,-65l0 -131 -51 0 0 -34 51 0 0 -52 41 -13 0 65 60 0 0 34z"/>
  <path class="fil0" d="M2030 2680c0,-34 -20,-63 -56,-63 -41,0 -57,34 -60,63l116 0zm27 125c-16,6 -34,15 -71,15 -80,0 -116,-49 -116,-122 0,-67 42,-114 105,-114 75,0 99,55 99,127l-161 0c0,45 35,75 74,75 27,0 59,-14 69,-22l0 41z"/>
  <path class="fil0" d="M2130 2589l40 0 0 36 1 0c12,-26 42,-41 74,-41 58,0 84,36 84,97l0 134 -41 0 0 -116c0,-52 -11,-78 -48,-80 -47,0 -68,38 -68,93l0 104 -41 0 0 -225z"/>
  <polygon class="fil0" points="2383,2778 2513,2623 2389,2623 2389,2589 2561,2589 2561,2625 2431,2781 2565,2781 2565,2814 2383,2814 "/>
  <path class="fil0" d="M2777 2704c0,-47 -22,-87 -66,-87 -42,0 -63,45 -63,84 0,42 24,79 63,79 39,0 66,-34 66,-76zm41 100c0,68 -35,108 -116,108 -24,0 -45,-3 -81,-15l4 -38c32,15 51,20 81,20 44,0 70,-30 70,-77l0 -22 -1 0c-18,23 -47,35 -75,35 -64,0 -96,-52 -96,-111 0,-58 33,-120 101,-120 40,0 62,15 74,39l1 0 0 -34 38 0 0 215z"/>
  <path class="fil0" d="M2889 2589l39 0 0 35 1 0c11,-23 35,-40 59,-40 12,0 19,1 27,3l0 37c-8,-3 -16,-4 -23,-4 -37,0 -61,35 -61,92l0 102 -41 0 0 -225z"/>
  <path class="fil0" d="M3176 2511l41 0 0 44 -41 0 0 -44zm-72 0l41 0 0 44 -41 0 0 -44zm156 303l-40 0 0 -36 -1 0c-12,26 -42,41 -74,41 -58,0 -84,-36 -84,-97l0 -134 41 0 0 116c0,52 11,78 48,80 47,0 68,-38 68,-93l0 -104 41 0 0 225z"/>
  <path class="fil0" d="M3330 2589l40 0 0 36 1 0c12,-26 42,-41 74,-41 58,0 84,36 84,97l0 134 -41 0 0 -116c0,-52 -11,-78 -48,-80 -47,0 -68,38 -68,93l0 104 -41 0 0 -225z"/>
  <path class="fil0" d="M3691 2786c47,0 66,-46 66,-84 0,-42 -22,-85 -67,-85 -45,0 -63,42 -62,83 -1,35 18,85 62,85zm68 -4l-1 0c-11,17 -37,37 -77,37 -68,0 -97,-60 -97,-122 0,-60 32,-114 97,-114 39,0 62,15 75,36l1 0 0 -137 41 0 0 331 -40 0 0 -32z"/>
  <path class="fil0" d="M4068 2814l-40 0 0 -36 -1 0c-12,26 -42,41 -74,41 -58,0 -84,-36 -84,-97l0 -134 41 0 0 116c0,52 11,78 48,80 47,0 68,-38 68,-93l0 -104 41 0 0 225z"/>
  <path class="fil0" d="M4138 2589l40 0 0 36 1 0c12,-26 42,-41 74,-41 58,0 84,36 84,97l0 134 -41 0 0 -116c0,-52 -11,-78 -48,-80 -47,0 -68,38 -68,93l0 104 -41 0 0 -225z"/>
  <path class="fil0" d="M4565 2704c0,-47 -22,-87 -66,-87 -42,0 -63,45 -63,84 0,42 24,79 63,79 39,0 66,-34 66,-76zm41 100c0,68 -35,108 -116,108 -24,0 -45,-3 -81,-15l4 -38c32,15 51,20 81,20 44,0 70,-30 70,-77l0 -22 -1 0c-18,23 -47,35 -75,35 -64,0 -96,-52 -96,-111 0,-58 33,-120 101,-120 40,0 62,15 74,39l1 0 0 -34 38 0 0 215z"/>
  <path class="fil0" d="M4823 2680c0,-34 -20,-63 -56,-63 -41,0 -57,34 -60,63l116 0zm27 125c-16,6 -34,15 -71,15 -80,0 -116,-49 -116,-122 0,-67 42,-114 105,-114 75,0 99,55 99,127l-161 0c0,45 35,75 74,75 27,0 59,-14 69,-22l0 41z"/>
  <path class="fil0" d="M4922 2589l40 0 0 36 1 0c12,-26 42,-41 74,-41 58,0 84,36 84,97l0 134 -41 0 0 -116c0,-52 -11,-78 -48,-80 -47,0 -68,38 -68,93l0 104 -41 0 0 -225z"/>
  <path class="fil0" d="M1087 3179c-9,0 -18,-1 -26,-1 -22,0 -78,4 -78,43 0,24 23,37 42,37 41,0 63,-26 63,-59l0 -20zm-123 -102c21,-12 45,-21 74,-21 64,0 90,32 90,93l0 93c0,26 1,38 2,44l-39 0 0 -29 -1 0c-10,14 -32,34 -70,34 -49,0 -82,-21 -82,-70 0,-56 62,-74 105,-74 16,0 28,0 44,1 0,-39 -14,-59 -56,-59 -23,0 -49,9 -65,23l-2 -35z"/>
  <path class="fil0" d="M1397 3286l-40 0 0 -36 -1 0c-12,26 -42,41 -74,41 -58,0 -84,-36 -84,-97l0 -134 41 0 0 116c0,52 11,78 48,80 47,0 68,-38 68,-93l0 -104 41 0 0 225z"/>
  <path class="fil0" d="M1451 3242c16,11 40,16 52,16 19,0 42,-8 42,-32 0,-41 -97,-37 -97,-101 0,-47 35,-69 79,-69 19,0 35,4 52,9l-4 36c-9,-6 -34,-11 -44,-11 -21,0 -40,9 -40,27 0,46 97,33 97,105 0,48 -38,70 -79,70 -21,0 -43,-2 -62,-12l2 -37z"/>
  <path class="fil0" d="M1853 3258c47,0 66,-46 66,-84 0,-42 -22,-85 -67,-85 -45,0 -63,42 -62,83 -1,35 18,85 62,85zm68 -4l-1 0c-11,17 -37,37 -77,37 -68,0 -97,-60 -97,-122 0,-60 32,-114 97,-114 39,0 62,15 75,36l1 0 0 -137 41 0 0 331 -40 0 0 -32z"/>
  <path class="fil0" d="M2177 3152c0,-34 -20,-63 -56,-63 -41,0 -57,34 -60,63l116 0zm27 125c-16,6 -34,15 -71,15 -80,0 -116,-49 -116,-122 0,-67 42,-114 105,-114 75,0 99,55 99,127l-161 0c0,45 35,75 74,75 27,0 59,-14 69,-22l0 41z"/>
  <path class="fil0" d="M2277 3061l39 0 0 35 1 0c11,-23 35,-40 59,-40 12,0 19,1 27,3l0 37c-7,-3 -16,-4 -23,-4 -37,0 -61,35 -61,92l0 102 -41 0 0 -225z"/>
  <polygon class="fil0" points="2536,2979 2585,2979 2658,3242 2659,3242 2725,2979 2788,2979 2854,3242 2855,3242 2929,2979 2976,2979 2881,3286 2824,3286 2757,3017 2756,3017 2688,3286 2629,3286 "/>
  <path class="fil0" d="M3017 3061l41 0 0 225 -41 0 0 -225zm44 -50l-47 0 0 -47 47 0 0 47z"/>
  <path class="fil0" d="M3118 3242c16,11 40,16 52,16 19,0 42,-8 42,-32 0,-41 -97,-37 -97,-101 0,-47 35,-69 79,-69 19,0 35,4 52,9l-4 36c-9,-6 -34,-11 -44,-11 -21,0 -40,9 -40,27 0,46 97,33 97,105 0,48 -38,70 -79,70 -21,0 -43,-2 -62,-12l2 -37z"/>
  <path class="fil0" d="M3289 3242c16,11 40,16 52,16 19,0 42,-8 42,-32 0,-41 -97,-37 -97,-101 0,-47 35,-69 79,-69 19,0 35,4 52,9l-4 36c-9,-6 -34,-11 -44,-11 -21,0 -40,9 -40,27 0,46 97,33 97,105 0,48 -38,70 -79,70 -21,0 -43,-2 -62,-12l2 -37z"/>
  <path class="fil0" d="M3623 3152c0,-34 -20,-63 -56,-63 -41,0 -57,34 -60,63l116 0zm27 125c-16,6 -34,15 -71,15 -80,0 -116,-49 -116,-122 0,-67 42,-114 105,-114 75,0 99,55 99,127l-161 0c0,45 35,75 74,75 27,0 59,-14 69,-22l0 41z"/>
  <path class="fil0" d="M3723 3061l40 0 0 36 1 0c12,-26 42,-41 74,-41 58,0 84,36 84,97l0 134 -41 0 0 -116c0,-52 -11,-78 -48,-80 -47,0 -68,38 -68,93l0 104 -41 0 0 -225z"/>
  <path class="fil0" d="M3975 3242c16,11 40,16 52,16 19,0 42,-8 42,-32 0,-41 -97,-37 -97,-101 0,-47 35,-69 79,-69 19,0 35,4 52,9l-4 36c-9,-6 -34,-11 -44,-11 -21,0 -40,9 -40,27 0,46 97,33 97,105 0,48 -38,70 -79,70 -21,0 -43,-2 -62,-12l2 -37z"/>
  <path class="fil0" d="M4306 3099c-16,-7 -32,-10 -45,-10 -46,0 -72,41 -72,84 0,40 22,84 75,84 14,0 32,-4 45,-13l3 37c-17,8 -37,9 -52,9 -68,0 -115,-53 -115,-118 0,-68 46,-118 115,-118 17,0 38,4 50,9l-4 34z"/>
  <path class="fil0" d="M4359 2956l41 0 0 138 1 0c15,-24 41,-37 72,-37 58,0 84,36 84,97l0 134 -41 0 0 -116c0,-52 -11,-78 -48,-80 -47,0 -68,38 -68,93l0 104 -41 0 0 -331z"/>
  <path class="fil0" d="M4762 3179c-9,0 -18,-1 -26,-1 -23,0 -78,4 -78,43 0,24 23,37 42,37 41,0 63,-26 63,-59l0 -20zm-123 -102c21,-12 45,-21 74,-21 64,0 90,32 90,93l0 93c0,26 1,38 2,44l-39 0 0 -29 -1 0c-10,14 -32,34 -70,34 -49,0 -82,-21 -82,-70 0,-56 62,-74 105,-74 16,0 28,0 44,1 0,-39 -14,-59 -56,-59 -23,0 -49,9 -65,23l-2 -35z"/>
  <path class="fil0" d="M4901 3095l-53 0 0 -34 53 0 0 -21c0,-55 14,-90 75,-90 11,0 19,1 28,3l-2 34c-5,-2 -13,-3 -20,-3 -36,0 -40,23 -40,53l0 24 60 0 0 34 -60 0 0 191 -41 0 0 -191z"/>
  <path class="fil0" d="M5165 3095l-60 0 0 123c0,26 16,40 35,40 13,0 22,-4 28,-8l0 35c-9,3 -22,6 -35,6 -43,0 -69,-20 -69,-65l0 -131 -51 0 0 -34 51 0 0 -52 41 -13 0 65 60 0 0 34z"/>
  <path class="fil0" d="M883 1228c5,-35 7,-64 7,-92 0,-142 -87,-243 -255,-243 -182,0 -321,158 -368,335l616 0zm28 697c-116,28 -236,50 -357,50 -293,0 -555,-118 -555,-543 0,-333 234,-718 659,-718 290,0 453,175 453,460 0,80 -9,149 -21,220l-848 0c-5,26 -7,50 -7,76 0,253 156,326 371,326 111,0 231,-28 340,-73l-35 203z"/>
  <polygon class="fil0" points="3013,731 3187,731 2928,1938 2753,1938 "/>
  <polygon class="fil1 str0" points="3013,731 3187,731 2928,1938 2753,1938 "/>
  <path class="fil0" d="M4016 921c-57,-35 -128,-59 -220,-59 -114,0 -239,45 -239,189 0,202 412,204 412,521 0,182 -126,387 -417,387 -140,0 -240,-31 -337,-69l55 -159c71,45 170,76 254,76 183,0 261,-114 261,-214 0,-246 -412,-202 -412,-538 0,-220 201,-344 400,-344 100,0 199,19 291,57l-48 154z"/>
  <path class="fil1 str0" d="M4016 921c-57,-35 -128,-59 -220,-59 -114,0 -239,45 -239,189 0,202 412,204 412,521 0,182 -126,387 -417,387 -140,0 -240,-31 -337,-69l55 -159c71,45 170,76 254,76 183,0 261,-114 261,-214 0,-246 -412,-202 -412,-538 0,-220 201,-344 400,-344 100,0 199,19 291,57l-48 154z"/>
  <polygon class="fil0" points="5152,883 4777,883 4550,1938 4376,1938 4602,883 4227,883 4260,731 5185,731 "/>
  <polygon class="fil1 str0" points="5152,883 4777,883 4550,1938 4376,1938 4602,883 4227,883 4260,731 5185,731 "/>
  <polygon class="fil2" points="2114,1337 2525,2145 2114,2145 1842,1559 1233,2238 951,2056 1683,1293 1289,498 1683,498 1948,1078 2548,409 2823,584 "/>
  <path class="fil3" d="M2294 224c0,124 -101,225 -225,225 -124,0 -225,-101 -225,-225 0,-119 92,-216 209,-224l31 0c117,8 209,105 209,224z"/>
 </g>
</svg>
